<?xml version="1.0" encoding="UTF-8" standalone="no"?>
<!-- Created with Inkscape (http://www.inkscape.org/) -->

<svg
   xmlns:dc="http://purl.org/dc/elements/1.1/"
   xmlns:cc="http://creativecommons.org/ns#"
   xmlns:rdf="http://www.w3.org/1999/02/22-rdf-syntax-ns#"
   xmlns:svg="http://www.w3.org/2000/svg"
   xmlns="http://www.w3.org/2000/svg"
   xmlns:sodipodi="http://sodipodi.sourceforge.net/DTD/sodipodi-0.dtd"
   xmlns:inkscape="http://www.inkscape.org/namespaces/inkscape"
   id="svg2985"
   version="1.1"
   inkscape:version="0.48.4 r9939"
   width="2448"
   height="3264"
   sodipodi:docname="broom.svg">
  <metadata
     id="metadata2991">
    <rdf:RDF>
      <cc:Work
         rdf:about="">
        <dc:format>image/svg+xml</dc:format>
        <dc:type
           rdf:resource="http://purl.org/dc/dcmitype/StillImage" />
        <dc:title></dc:title>
      </cc:Work>
    </rdf:RDF>
  </metadata>
  <defs
     id="defs2989">
    <inkscape:path-effect
       effect="spiro"
       id="path-effect3774"
       is_visible="true" />
    <inkscape:path-effect
       effect="spiro"
       id="path-effect3002"
       is_visible="true" />
  </defs>
  <sodipodi:namedview
     pagecolor="#ffffff"
     bordercolor="#666666"
     borderopacity="1"
     objecttolerance="10"
     gridtolerance="10"
     guidetolerance="10"
     inkscape:pageopacity="0"
     inkscape:pageshadow="2"
     inkscape:window-width="1366"
     inkscape:window-height="746"
     id="namedview2987"
     showgrid="false"
     inkscape:zoom="0.17153603"
     inkscape:cx="1845.7851"
     inkscape:cy="1764.1478"
     inkscape:window-x="-8"
     inkscape:window-y="-8"
     inkscape:window-maximized="1"
     inkscape:current-layer="svg2985" />
  <g
     inkscape:groupmode="layer"
     id="layer1"
     inkscape:label="Broom">
    <path
       style="fill:none;stroke:#000000;stroke-width:28.19999999999999900;stroke-linecap:butt;stroke-linejoin:round;stroke-opacity:1;stroke-miterlimit:4;stroke-dasharray:none"
       d="m 802.40837,442.50823 18.66066,-160.48167 52.24985,-41.05345 55.98198,26.12492 82.10694,141.82102 -208.99943,33.58918"
       id="path3000"
       inkscape:path-effect="#path-effect3002"
       inkscape:original-d="m 802.40837,442.50823 c 0,-78.37477 18.66066,-160.48167 18.66066,-160.48167 l 52.24985,-41.05345 55.98198,26.12492 82.10694,141.82102 z"
       inkscape:connector-curvature="0" />
    <path
       style="fill:none;stroke:#000000;stroke-width:28.2;stroke-linecap:butt;stroke-linejoin:miter;stroke-opacity:1;stroke-miterlimit:4;stroke-dasharray:none"
       d="m 1145.7645,1689.0403 c 235.1243,906.9081 235.1243,906.9081 235.1243,906.9081"
       id="path3812"
       inkscape:connector-curvature="0" />
    <path
       style="fill:none;stroke:#000000;stroke-width:19;stroke-linecap:butt;stroke-linejoin:miter;stroke-opacity:1;stroke-miterlimit:4;stroke-dasharray:none"
       d="m 1220.4072,1674.1118 c 250.0528,1030.0684 246.3207,1026.3363 246.3207,1026.3363"
       id="path3814"
       inkscape:connector-curvature="0" />
    <path
       style="fill:none;stroke:#000000;stroke-width:15.9;stroke-linecap:butt;stroke-linejoin:miter;stroke-opacity:1;stroke-miterlimit:4;stroke-dasharray:none"
       d="m 1265.1927,1659.1833 c 246.3207,981.5507 246.3207,981.5507 246.3207,981.5507"
       id="path3816"
       inkscape:connector-curvature="0" />
    <path
       style="fill:none;stroke:#000000;stroke-width:22.8;stroke-linecap:butt;stroke-linejoin:miter;stroke-opacity:1;stroke-miterlimit:4;stroke-dasharray:none"
       d="m 1306.2462,1647.9869 c 261.2492,903.1759 257.5171,903.1759 257.5171,903.1759"
       id="path3818"
       inkscape:connector-curvature="0" />
    <path
       style="fill:none;stroke:#000000;stroke-width:16.6;stroke-linecap:butt;stroke-linejoin:miter;stroke-opacity:1;stroke-miterlimit:4;stroke-dasharray:none"
       d="m 1332.3711,1640.5226 c 362.0168,679.248 362.0168,679.248 362.0168,679.248 l 0,0"
       id="path3820"
       inkscape:connector-curvature="0" />
    <path
       style="fill:none;stroke:#000000;stroke-width:9.4;stroke-linecap:butt;stroke-linejoin:miter;stroke-opacity:1;stroke-miterlimit:4;stroke-dasharray:none"
       d="m 1414.478,1610.6655 c 261.2493,608.3375 261.2493,608.3375 261.2493,608.3375"
       id="path3822"
       inkscape:connector-curvature="0" />
    <path
       style="fill:none;stroke:#000000;stroke-width:27.3;stroke-linecap:butt;stroke-linejoin:miter;stroke-opacity:1;stroke-miterlimit:4;stroke-dasharray:none"
       d="m 1384.621,1629.3262 c 276.1777,977.8186 283.642,985.2828 283.642,985.2828 l 0,0"
       id="path3824"
       inkscape:connector-curvature="0" />
    <path
       style="fill:none;stroke:#000000;stroke-width:36.4;stroke-linecap:butt;stroke-linejoin:miter;stroke-opacity:1;stroke-miterlimit:4;stroke-dasharray:none"
       d="m 903.17594,1076.9707 c -100.76757,85.839 -164.21381,179.1423 -164.21381,179.1423 l 63.44624,335.8919 14.92853,100.7675 0,14.9286 108.23183,3.7321 395.60597,-74.6426 70.9105,-33.5892 37.3213,-26.1249 -29.857,-130.6247 -33.5892,-216.4636 -59.7141,-123.1604 -108.2318,-55.982 -59.7142,-18.6606"
       id="path3826"
       inkscape:connector-curvature="0" />
    <path
       style="fill:none;stroke:#000000;stroke-width:33.70000076;stroke-linecap:butt;stroke-linejoin:miter;stroke-miterlimit:4;stroke-opacity:1;stroke-dasharray:none"
       d="m 899.4438,1065.7742 235.1243,-33.5891 -33.5892,-138.0889 -63.4462,-283.64203 -208.9994,44.78559 z"
       id="path3828"
       inkscape:connector-curvature="0" />
    <path
       style="fill:none;stroke:#000000;stroke-width:27.3;stroke-linecap:butt;stroke-linejoin:miter;stroke-opacity:1;stroke-miterlimit:4;stroke-dasharray:none"
       d="M 817.3369,629.11483 768.81919,520.883 l 37.32131,-55.98197 190.33873,-37.32132 37.32137,41.05345 29.857,104.49969 -26.1249,18.66066 -138.0889,29.85706 z"
       id="path3830"
       inkscape:connector-curvature="0" />
  </g>
  <path
     style="fill:none;stroke:#000000;stroke-width:19.6;stroke-linecap:butt;stroke-linejoin:miter;stroke-opacity:1;stroke-miterlimit:4;stroke-dasharray:none"
     d="M 989.01497,1733.8259 C 903.17594,2767.6264 899.4438,2767.6264 899.4438,2767.6264 l 0,0 3.73214,7.4643"
     id="path3780"
     inkscape:connector-curvature="0" />
  <path
     style="fill:none;stroke:#000000;stroke-width:28.9;stroke-linecap:butt;stroke-linejoin:miter;stroke-opacity:1;stroke-miterlimit:4;stroke-dasharray:none"
     d="m 899.4438,1737.558 c -156.74954,780.0156 -160.48167,780.0156 -160.48167,780.0156 l 0,0 0,0"
     id="path3800"
     inkscape:connector-curvature="0" />
  <path
     style="fill:none;stroke:#000000;stroke-width:14.9;stroke-linecap:butt;stroke-linejoin:miter;stroke-opacity:1;stroke-miterlimit:51.90000153;stroke-dasharray:none"
     d="m 835.99756,1733.8259 c 18.66066,817.3369 18.66066,832.2654 18.66066,832.2654"
     id="path3802"
     inkscape:connector-curvature="0" />
  <path
     style="fill:none;stroke:#000000;stroke-width:28.2;stroke-linecap:butt;stroke-linejoin:miter;stroke-opacity:1;stroke-miterlimit:4;stroke-dasharray:none"
     d="M 944.22939,1748.7544 C 832.26543,2715.3766 832.26543,2722.8409 832.26543,2722.8409"
     id="path3804"
     inkscape:connector-curvature="0" />
  <path
     style="fill:none;stroke:#000000;stroke-width:32;stroke-linecap:butt;stroke-linejoin:miter;stroke-opacity:1;stroke-miterlimit:4;stroke-dasharray:none"
     d="m 1015.1399,1718.8974 c 41.0534,1037.5327 41.0534,1037.5327 41.0534,1037.5327"
     id="path3806"
     inkscape:connector-curvature="0" />
  <path
     style="fill:none;stroke:#000000;stroke-width:45.6;stroke-linecap:butt;stroke-linejoin:miter;stroke-opacity:1;stroke-miterlimit:4;stroke-dasharray:none"
     d="M 1048.7291,1722.6295 C 1186.818,2771.3586 1186.818,2771.3586 1186.818,2771.3586"
     id="path3808"
     inkscape:connector-curvature="0" />
  <path
     style="fill:none;stroke:#000000;stroke-width:27.6;stroke-linecap:butt;stroke-linejoin:miter;stroke-opacity:1;stroke-miterlimit:4;stroke-dasharray:none"
     d="m 1100.9789,1730.0938 c 227.6601,966.6221 227.6601,962.89 227.6601,962.89"
     id="path3810"
     inkscape:connector-curvature="0" />
  <path
     sodipodi:type="arc"
     style="fill:#000000;fill-opacity:1;fill-rule:evenodd;stroke:#000000;stroke-width:27.29999924;stroke-linejoin:round;stroke-miterlimit:4;stroke-opacity:1;stroke-dasharray:none"
     id="path3832"
     sodipodi:cx="1156.9609"
     sodipodi:cy="504.08841"
     sodipodi:rx="33.589188"
     sodipodi:ry="98.901497"
     d="m 1190.5501,504.08841 a 33.589188,98.901497 0 1 1 -67.1784,0 33.589188,98.901497 0 1 1 67.1784,0 z"
     transform="translate(29.857056,0)" />
  <path
     style="fill:none;stroke:#000000;stroke-width:18.1;stroke-linecap:butt;stroke-linejoin:miter;stroke-opacity:1;stroke-miterlimit:4;stroke-dasharray:none"
     d="m 1028.2703,264.87829 6.9478,178.32615 c -6.9478,-176.01023 -2.316,-134.3236 -2.316,-134.3236 l 4.6319,-37.05478 32.4229,-6.94777 50.9504,0 101.9006,2.31592 71.7937,-2.31592 30.107,6.94777 9.2637,81.05734 -6.9478,481.71222 -11.5796,231.59238 0,32.423 698.6194,366.8875 22.5215,25.7388 0,23.3041 90.0859,1096.3355 -41.8256,0 -398.952,-32.1735 0,0"
     id="path3834"
     inkscape:connector-curvature="0" />
  <path
     style="fill:none;stroke:#000000;stroke-width:14.9;stroke-linecap:butt;stroke-linejoin:miter;stroke-opacity:1;stroke-miterlimit:4;stroke-dasharray:none"
     d="m 804.33879,2495.0521 -537.29831,-22.5215 -32.17355,-19.3041 90.08594,-1019.9016 22.52149,-32.1735 395.73468,-183.3893"
     id="path3836"
     inkscape:connector-curvature="0" />
  <path
     style="fill:none;stroke:#000000;stroke-width:16.7;stroke-linecap:butt;stroke-linejoin:miter;stroke-opacity:1;stroke-miterlimit:4;stroke-dasharray:none"
     d="m 711.22085,1316.8872 c -256.50588,116.5936 -256.50588,116.5936 -256.50588,116.5936 l -163.23101,880.2815 460.54464,29.1484"
     id="path3838"
     inkscape:connector-curvature="0" />
  <path
     style="fill:none;stroke:#000000;stroke-width:13.7;stroke-linecap:butt;stroke-linejoin:miter;stroke-opacity:1;stroke-miterlimit:4;stroke-dasharray:none"
     d="m 1381.6339,1200.2936 c 408.0776,233.1872 478.0337,273.9949 478.0337,273.9949 l 169.0607,979.3861 -332.2917,-29.1484 0,0"
     id="path3840"
     inkscape:connector-curvature="0" />
  <path
     style="fill:none;stroke:#000000;stroke-width:36.5;stroke-linecap:butt;stroke-linejoin:miter;stroke-opacity:1;stroke-miterlimit:4;stroke-dasharray:none"
     d="m 810.3254,1579.2227 c 134.08261,-17.489 483.8634,-75.7858 483.8634,-75.7858 l 93.2748,-40.8077"
     id="path3842"
     inkscape:connector-curvature="0" />
</svg>
